---
config:
    layout: elk
---
erDiagram
  TaxonConceptMapping }|--o| TaxonConcept : "subjectTaxonConcept"
  TaxonConceptMapping }|--o| TaxonConcept : "objectTaxonConcept"
  TaxonConceptMapping }o--|| Entity_Source_MAP : "morphs as 'provenanceable'"
  Entity_Source_MAP }|--o| Reference : "reference"
  TaxonConceptMapping |o--|{ Entity_Creator_MAP : "morphs as 'attributable'"
  Entity_Creator_MAP }|--o| Agent : "agent"
  
  TaxonConceptMapping {
    int id PK
    int subject_taxon_concept_id FK
    int object_taxon_concept_id FK
    enum mapping_relation
    array metadata "nullable"
    text remarks "nullable"
  }